<?xml version="1.0" standalone="no"?>
<!DOCTYPE svg PUBLIC "-//W3C//DTD SVG 20010904//EN"
 "http://www.w3.org/TR/2001/REC-SVG-20010904/DTD/svg10.dtd">
<svg version="1.0" xmlns="http://www.w3.org/2000/svg"
 width="1280.000000pt" height="853.000000pt" viewBox="0 0 1280.000000 853.000000"
 preserveAspectRatio="xMidYMid meet">
<metadata>
Created by potrace 1.15, written by Peter Selinger 2001-2017
</metadata>
<g transform="translate(0.000000,853.000000) scale(0.100000,-0.100000)"
fill="#000000" stroke="none">
<path d="M2407 7212 c-15 -9 -37 -36 -48 -59 -18 -38 -25 -43 -53 -43 -21 0
-40 -8 -54 -22 -23 -26 -47 -109 -38 -133 3 -9 1 -26 -6 -38 -6 -12 -15 -30
-19 -39 -16 -33 -48 -255 -59 -403 -5 -82 -14 -170 -19 -195 -10 -48 -25 -149
-41 -290 -5 -47 -16 -121 -24 -165 -18 -95 -21 -251 -5 -260 10 -7 89 -18 539
-75 129 -17 258 -34 285 -38 l50 -7 5 -54 c7 -69 24 -81 149 -102 53 -9 123
-21 156 -27 33 -6 125 -22 205 -36 80 -14 195 -34 255 -45 61 -10 218 -38 350
-61 382 -65 399 -70 478 -133 76 -59 110 -136 127 -284 48 -423 52 -592 18
-681 -32 -85 -30 -135 9 -174 35 -34 -11 -23 558 -133 154 -30 363 -70 465
-90 284 -56 387 -68 525 -61 66 3 154 13 195 21 41 8 116 15 167 15 118 0 188
-24 237 -82 74 -85 87 -150 106 -513 11 -205 23 -396 40 -635 19 -260 32 -609
26 -654 -4 -25 -24 -80 -46 -123 -68 -138 -64 -173 31 -256 90 -79 338 -187
429 -187 12 0 29 -15 45 -40 31 -49 60 -64 155 -79 41 -6 102 -16 135 -21 113
-19 470 -40 570 -35 130 7 271 24 314 37 43 13 115 79 147 133 26 45 52 140
91 335 13 69 29 143 34 165 6 22 19 110 29 195 25 204 25 407 0 580 -11 74
-24 167 -30 205 -12 89 -57 339 -69 385 -8 30 -27 135 -63 358 -17 109 -26
160 -47 267 -11 61 -21 133 -20 160 0 67 21 159 50 220 32 68 149 188 228 235
109 65 138 72 456 115 66 9 126 22 132 29 7 6 16 32 19 57 6 41 1 54 -59 169
-93 176 -122 273 -167 547 -7 40 -16 75 -21 79 -5 3 -9 14 -9 24 0 26 58 62
192 118 198 82 222 169 71 257 -44 26 -50 27 -137 21 -51 -4 -100 -4 -109 0
-14 5 -17 21 -17 106 0 56 -6 119 -12 142 -18 60 -92 133 -143 141 -69 11 -85
21 -85 55 0 17 -7 44 -15 60 -17 32 -80 70 -118 70 -14 0 -32 11 -45 30 -20
26 -29 30 -73 30 l-49 0 -40 -62 c-72 -115 -49 -105 -191 -84 -68 10 -203 31
-299 46 -96 16 -236 38 -310 50 -74 12 -175 27 -225 35 -122 19 -452 72 -605
97 -69 11 -165 21 -215 23 -49 2 -137 13 -195 24 -58 12 -121 21 -141 21 -21
0 -165 16 -320 35 -156 20 -358 44 -449 55 -91 11 -195 24 -232 30 -37 5 -81
10 -99 10 -21 0 -46 11 -73 33 -36 29 -53 35 -136 46 -143 18 -428 60 -490 71
-73 13 -388 64 -520 85 -58 8 -161 25 -230 36 -203 32 -240 38 -355 54 -60 8
-135 20 -165 25 -54 10 -269 43 -519 80 -68 10 -128 23 -134 29 -5 5 -24 45
-41 88 l-32 78 -59 6 c-33 4 -107 9 -165 12 -88 5 -109 3 -133 -11z m3048
-2483 c83 -10 177 -23 210 -29 33 -5 96 -12 140 -15 125 -10 115 1 115 -130 0
-179 -39 -274 -160 -389 -70 -67 -199 -133 -279 -143 -32 -4 -55 -12 -58 -20
-4 -9 15 -36 47 -68 56 -57 54 -72 -7 -56 -21 5 -118 26 -215 46 -98 20 -199
42 -226 50 -63 19 -141 71 -154 104 -6 14 -13 110 -16 212 -4 184 -4 187 21
242 37 82 108 153 192 194 67 32 73 33 155 28 47 -3 153 -15 235 -26z m1199
-201 c10 -17 15 -79 19 -241 l6 -219 -28 -57 c-82 -161 -253 -231 -563 -231
-107 0 -164 6 -260 25 -68 14 -126 25 -130 25 -5 0 -8 3 -8 8 0 4 27 13 60 19
156 29 326 160 444 343 77 118 137 172 264 239 54 28 114 65 133 81 41 35 45
36 63 8z"/>
</g>
</svg>
