<?xml version="1.0" standalone="no"?>
<!DOCTYPE svg PUBLIC "-//W3C//DTD SVG 20010904//EN"
 "http://www.w3.org/TR/2001/REC-SVG-20010904/DTD/svg10.dtd">
<svg version="1.0" xmlns="http://www.w3.org/2000/svg"
 width="512.000000pt" height="471.000000pt" viewBox="0 0 512.000000 471.000000"
 preserveAspectRatio="xMidYMid meet">

<g transform="translate(0.000000,471.000000) scale(0.100000,-0.100000)"
fill="#000000" stroke="none">
<path d="M800 4703 c-19 -2 -73 -13 -120 -24 -267 -65 -485 -244 -599 -491
-82 -177 -75 -19 -79 -1793 -2 -1088 1 -1602 8 -1650 49 -317 277 -585 587
-691 54 -18 136 -38 183 -44 117 -14 3443 -14 3560 0 322 40 606 258 721 554
62 159 60 97 57 1832 l-3 1579 -23 79 c-91 322 -331 553 -661 634 -60 15 -231
16 -1831 18 -971 0 -1781 -1 -1800 -3z m2245 -837 c266 -63 394 -232 395 -522
0 -231 -98 -417 -263 -501 l-57 -28 24 -36 c51 -74 58 -129 60 -429 l1 -276
35 -71 c27 -55 33 -76 26 -92 -9 -21 -15 -21 -312 -21 l-302 0 -20 33 c-34 54
-42 132 -36 359 5 202 5 215 -15 245 -37 58 -61 64 -253 61 l-172 -3 -70 -327
-70 -328 -308 0 c-169 0 -308 3 -308 6 0 8 31 159 170 814 61 289 135 640 165
780 30 140 59 279 65 308 l12 53 581 -4 c497 -3 592 -6 652 -21z m564 -1826
c17 -107 34 -207 37 -222 l6 -28 209 -2 210 -3 -186 -129 c-102 -71 -188 -132
-189 -135 -2 -3 11 -107 29 -231 18 -124 31 -226 30 -228 -2 -2 -83 58 -180
132 -98 75 -181 136 -186 136 -5 0 -108 -59 -229 -131 -122 -72 -223 -129
-226 -127 -2 3 41 101 96 218 55 117 100 218 100 224 0 6 -57 71 -126 144
l-125 132 213 2 213 3 113 190 c62 105 122 205 133 224 11 18 21 32 23 30 2
-2 18 -92 35 -199z"/>
<path d="M1860 3812 c0 -4 -85 -412 -190 -906 -104 -494 -190 -902 -190 -907
0 -6 100 -8 242 -7 l242 3 70 333 70 332 186 0 c205 0 265 -10 312 -55 61 -57
63 -66 63 -350 0 -193 3 -266 13 -282 13 -23 14 -23 263 -23 l250 0 -14 28
c-35 69 -41 125 -41 402 -1 243 -3 280 -19 315 -25 55 -63 93 -122 121 -27 13
-42 24 -33 24 40 0 169 50 222 85 142 94 217 298 187 513 -27 194 -122 302
-317 359 -52 15 -124 18 -626 21 -321 2 -568 -1 -568 -6z m945 -402 c156 -79
113 -328 -67 -386 -70 -23 -548 -34 -548 -13 0 13 78 394 86 417 3 11 52 13
242 10 231 -3 239 -4 287 -28z"/>
<path d="M2330 3376 c0 -3 -13 -70 -30 -148 -16 -77 -30 -145 -30 -150 0 -6
89 -8 213 -6 203 3 214 4 262 28 62 31 85 72 85 150 -1 62 -10 79 -60 106 -30
16 -64 19 -237 22 -112 2 -203 1 -203 -2z"/>
<path d="M4966 229 c-66 -19 -99 -88 -73 -152 41 -97 173 -97 213 0 37 87 -48
179 -140 152z m100 -43 c66 -66 24 -165 -69 -166 -99 0 -133 138 -46 186 42
23 78 17 115 -20z"/>
<path d="M4950 120 c0 -33 4 -60 10 -60 6 0 10 9 10 19 0 11 4 23 10 26 14 9
50 -13 50 -30 0 -8 5 -15 10 -15 13 0 13 37 0 45 -6 4 -5 13 2 24 20 33 3 51
-47 51 l-45 0 0 -60z m69 41 c19 -12 6 -41 -18 -41 -24 0 -33 13 -25 34 7 18
22 20 43 7z"/>
</g>
</svg>
